<svg width="12" height="12" viewBox="0 0 12 12" fill="none" xmlns="http://www.w3.org/2000/svg">
<path d="M11.476 0.778334C10.9345 0.486604 10.3305 1.04923 9.97642 1.38263C9.16421 2.17447 8.47692 3.09133 7.70629 3.92485C6.85238 4.84171 6.06096 5.75858 5.18623 6.65464C4.68638 7.15475 4.14488 7.69653 3.81165 8.32166C3.06188 7.59231 2.41625 6.80047 1.58317 6.15453C0.979187 5.6961 -0.0205066 5.36269 0.000320301 6.4671C0.0419742 7.90494 1.31242 9.44694 2.24963 10.4263C2.64534 10.843 3.16602 11.2806 3.77 11.3015C4.49894 11.3432 5.24871 10.468 5.68607 9.98869C6.45671 9.15518 7.08151 8.21744 7.7896 7.36312C8.70598 6.23788 9.64319 5.13344 10.5388 3.98736C11.1011 3.27887 12.8714 1.52846 11.476 0.778334ZM0.916672 6.38375C0.895845 6.38375 0.875018 6.38375 0.833364 6.40455C0.750056 6.38375 0.687575 6.36287 0.604268 6.3212C0.666748 6.27952 0.770883 6.30036 0.916672 6.38375Z" fill="#00B272"/>
</svg>
