<svg width="24" height="24" viewBox="0 0 24 24" fill="none" xmlns="http://www.w3.org/2000/svg">
<g clip-path="url(#clip0_10_277)">
<path d="M12 24C8.81712 24 5.7648 22.7353 3.5148 20.4852C1.2648 18.2351 0 15.1826 0 12C0 8.81736 1.26468 5.7648 3.5148 3.5148C5.76492 1.2648 8.81736 0 12 0C15.1826 0 18.2352 1.26468 20.4852 3.5148C22.7352 5.76492 24 8.81736 24 12C23.9963 15.1819 22.7306 18.2316 20.4816 20.4816C18.2316 22.7307 15.1819 23.9964 12 24ZM12 1.84584C9.30744 1.84584 6.7248 2.91552 4.81968 4.81968C2.91562 6.72468 1.84584 9.30744 1.84584 12C1.84584 14.6926 2.91552 17.2752 4.81968 19.1803C6.72468 21.0844 9.30744 22.1542 12 22.1542C14.6926 22.1542 17.2752 21.0845 19.1803 19.1803C21.0844 17.2753 22.1542 14.6926 22.1542 12C22.1504 9.3084 21.0798 6.72744 19.1767 4.82352C17.2727 2.92039 14.6916 1.84968 12.0002 1.84608L12 1.84584Z" fill="black" fill-opacity="0.6"/>
<path d="M12 15.7001C11.49 15.7001 11.0766 15.2874 11.0766 14.7771C11.1966 13.6037 11.7956 12.5316 12.7322 11.8149C13.305 11.2418 13.8459 10.7006 13.8459 10.1594C13.8459 9.13886 13.02 8.3125 12 8.3125C10.98 8.3125 10.1541 9.13886 10.1541 10.1594C10.1541 10.6697 9.74062 11.0824 9.23062 11.0824C8.72062 11.0824 8.30811 10.6697 8.30811 10.1594C8.30811 8.83964 9.01123 7.61935 10.154 6.95997C11.2959 6.29962 12.704 6.29962 13.846 6.95997C14.9888 7.61937 15.6919 8.83969 15.6919 10.1594C15.5728 11.3328 14.9738 12.404 14.0372 13.1206C13.4644 13.6947 12.9235 14.2359 12.9235 14.7771C12.9235 15.0219 12.826 15.2564 12.6525 15.43C12.48 15.6035 12.2447 15.7001 12 15.7001Z" fill="black" fill-opacity="0.6"/>
<path d="M12.9245 17.5484C12.9245 18.7806 11.0767 18.7806 11.0767 17.5484C11.0767 16.3162 12.9245 16.3162 12.9245 17.5484Z" fill="black" fill-opacity="0.6"/>
</g>
<defs>
<clipPath id="clip0_10_277">
<rect width="24" height="24" fill="white"/>
</clipPath>
</defs>
</svg>
