<svg width="12" height="12" viewBox="0 0 12 12" fill="none" xmlns="http://www.w3.org/2000/svg">
<path d="M11.2893 8.79058C10.9827 8.44842 10.6515 8.12665 10.3281 7.80128C10.0874 7.5604 9.82203 7.34108 9.59984 7.08641C9.00633 6.39791 8.4284 5.69205 7.8307 4.97718C7.83789 4.958 7.84567 4.93943 7.85526 4.92205C8.56017 4.01125 9.31957 3.14355 10.1293 2.32501C10.2503 2.20517 10.379 2.09192 10.4928 1.96788C10.7474 1.68745 10.7629 1.49989 10.5084 1.23445L10.5078 1.23385C10.306 1.01454 10.0766 0.821594 9.82564 0.660402C9.32915 0.353605 8.76918 0.200206 8.21886 0.0132436C8.12244 -0.0233083 8.01464 0.0180373 7.96733 0.109718C7.74932 0.405731 7.51934 0.692755 7.28817 0.977985C6.82821 1.54544 6.36826 2.1087 5.9083 2.67442C5.87956 2.71277 5.85261 2.75292 5.82865 2.79426C5.10638 2.0135 4.46255 1.22791 3.7403 0.507089C3.61393 0.569408 3.49414 0.645507 3.38455 0.734196C3.14559 0.988869 2.9246 1.25551 2.69641 1.52395C2.52333 1.73129 2.35923 1.9458 2.19034 2.15613C2.02144 2.36645 1.86693 2.53783 1.71661 2.73616C1.54953 2.95846 1.5633 3.0873 1.76393 3.28683C2.20591 3.75002 2.68324 4.17906 3.19171 4.56915C3.47199 4.76989 3.71934 5.01737 3.98465 5.24866C3.26657 6.34522 2.59341 7.44058 1.76874 8.4257C1.38246 8.8859 1.02671 9.37067 0.663176 9.84763C0.509858 10.055 0.509858 10.188 0.698512 10.3785C0.796133 10.4786 0.903928 10.5691 1.01892 10.6482C1.53577 10.9921 2.01728 11.3864 2.45688 11.825C2.53893 11.8927 2.62757 11.9515 2.72219 12C2.79107 11.8448 2.87072 11.6956 2.95996 11.5518C3.93916 10.1814 4.92198 8.81576 5.90828 7.45435C5.9496 7.39743 5.99392 7.34709 6.04483 7.28537C6.09693 7.3315 6.14125 7.36985 6.18437 7.4112L7.65647 8.90983C8.06553 9.32388 8.47397 9.73734 8.88302 10.149C9.12079 10.3899 9.225 10.3899 9.51187 10.2335C10.0497 9.93628 10.5965 9.65045 11.1516 9.37662C11.4846 9.21064 11.5457 9.06503 11.2893 8.79058Z" fill="#C73000"/>
</svg>
